<?xml version="1.0" encoding="UTF-8" standalone="no"?>
<svg width="301px" height="144px" viewBox="0 0 301 144" version="1.1" xmlns="http://www.w3.org/2000/svg" xmlns:xlink="http://www.w3.org/1999/xlink">
    <!-- Generator: Sketch 3.7.1 (28215) - http://www.bohemiancoding.com/sketch -->
    <title>Group</title>
    <desc>Created with Sketch.</desc>
    <defs></defs>
    <g id="Page-1" stroke="none" stroke-width="1" fill="none" fill-rule="evenodd">
        <g id="Group" transform="translate(-1.000000, 0.000000)" fill="#000000">
            <text id="[Trove#" font-family="Bucanera-FFP, Bucanera" font-size="70" font-weight="normal">
                <tspan x="0" y="84">[Trove#</tspan>
            </text>
            <g id="Layer-1" transform="translate(205.000000, 29.000000)">
                <g id="layer1">
                    <path d="M75.8684814,2.06260131 C75.8300781,3.14214662 76.235039,5.34183726 72.7047998,12.1691287 C68.7617579,19.7958365 62.6817579,26.1325796 56.7203222,31.2625946 C53.1243213,34.3575496 49.4401611,36.8705567 45.6148779,39.0932334 C44.6190381,38.7165176 43.3940821,38.2209605 42.0235205,37.6011905 C42.0143994,37.5976685 42.0062402,37.5924775 41.997119,37.5891395 C42.9468798,37.0418594 43.9735986,36.4309889 45.0982421,35.736876 C56.1084813,28.9481464 58.1483202,24.8548468 58.0526414,24.7437965 C57.9569579,24.6327461 55.1884813,28.3695337 45.6979198,34.7728316 C44.3158398,35.7046183 42.8985595,36.5516801 41.4561621,37.3216183 C40.3880005,36.8103045 39.339519,36.2517146 38.4447998,35.7257528 C43.053921,33.4094489 47.9662403,30.5276977 51.9913624,27.4438657 C58.1860792,22.6994663 64.0171192,17.1404493 68.641919,10.8960337 C72.8670411,5.1927809 74.6036818,2.25596629 74.8699219,1.67716817 C75.2883203,0.767257871 75.9604786,-0.486185579 75.8684814,2.06260112 L75.8684814,2.06260131 Z M73.06,8.33760619 C72.9272021,8.28606686 71.9948779,11.1146125 68.6643213,15.8462184 C65.3414405,20.5678142 62.3588818,23.4063713 62.4923194,23.5606187 C62.6259179,23.7148661 65.1724805,21.6206627 69.0641602,16.0004657 C72.5651221,10.9440511 73.1935986,8.38858952 73.06,8.33760619 L73.06,8.33760619 Z M53.3859178,42.4104762 C53.3859178,42.4104762 53.4363181,43.2093397 51.8809618,43.8761964 C50.9659178,44.2686747 50.7916795,44.474832 45.9164794,42.4488528 C44.4476805,41.8387264 36.4467211,39.1868583 29.95312,34.7728318 C20.53312,28.3695339 17.8507202,24.5952976 17.69088,24.7437966 C17.5310398,24.8922985 19.6204797,28.9481466 30.5478392,35.7368762 C39.1960008,41.1097588 42.2148778,41.7163661 45.7844822,43.1813451 C50.1611179,44.9783607 50.6092821,45.0167373 51.2052781,45.8435895 C51.8540818,46.7447847 51.601279,48.6975356 51.601279,48.6975356 C51.601279,48.6975356 43.6647995,46.0849719 37.7198386,43.1813449 C31.0777586,39.9377041 24.9291208,36.3933536 19.0128,31.2625946 C13.0967832,26.1325796 7.06174352,19.7956526 3.14814368,12.1691287 C-0.35521632,5.34165187 0.04686368,3.14214662 0.00846368,2.06260131 C-0.08273616,-0.486185393 0.58414368,0.767258056 1.00014368,1.67716835 C1.26446368,2.25578108 2.98734384,5.19259569 7.18046352,10.8960339 C11.7713437,17.1404494 17.5583994,22.6994665 23.7063986,27.4438659 C29.3495992,31.799309 35.4982394,34.9697187 41.4275192,37.763967 C47.9900778,40.8581809 53.3859176,42.410476 53.3859176,42.410476 L53.3859178,42.4104762 Z M7.86718368,44.531749 C9.267664,44.531749 10.1318235,45.8042852 10.1318235,47.347132 C10.1318235,49.9335513 8.14334384,49.7963621 8.10078416,50.2401901 C8.05806384,50.6851328 8.68126384,50.9980801 9.665584,50.8188028 C10.3343834,50.6973704 10.9420642,49.5093725 11.197744,49.8547612 C11.453424,50.2001444 9.802224,52.554641 8.23390368,52.554641 C6.535504,52.554641 4.90350384,50.8581071 4.90350384,48.4272309 C4.903344,45.64967 6.20238384,44.531749 7.86718368,44.531749 L7.86718368,44.531749 Z M11.4638243,44.4931858 C12.6225438,44.4931858 12.7918235,44.961676 13.1291038,46.2282829 C13.4439842,47.4134974 14.1425438,47.7036382 14.2945434,47.6949253 C14.4465442,47.6852845 13.8694237,47.1695238 13.5617443,46.1897197 C13.2953442,45.3419167 12.9070238,44.338565 14.3945434,44.338565 C15.8278234,44.338565 15.8209435,45.048251 16.0262402,45.6889745 C16.3593603,46.7299558 17.2558398,47.5113878 17.3915197,47.501747 C17.5271997,47.4921062 16.6923205,46.4991421 16.4923205,45.6111069 C16.3388794,44.9301567 16.3572802,44.3769416 17.1916797,44.3769416 C17.8908802,44.3769416 18.3240002,45.3035401 18.9231995,46.5376998 C19.4464002,47.6144665 19.98,50.0540556 18.9568006,50.1632504 C17.4438405,50.3241738 12.9351845,50.4778667 12.3299037,50.0479397 C11.2595045,49.2857895 10.8646242,48.3121013 10.564784,46.884571 C10.200304,45.1487384 10.2411035,44.4931858 11.4638245,44.4931858 L11.4638243,44.4931858 Z M16.6256005,42.6770618 C16.4592003,42.9088034 16.4260802,44.1813453 15.1270238,44.1813453 C13.8284643,44.1813453 12.8961437,43.1019818 12.8961437,41.1727785 C12.8961437,39.2445058 14.0615843,38.2411571 15.6263842,38.2411571 C17.1916795,38.2411571 18.4571203,39.0513275 19.6892797,40.709482 C20.910559,42.3544794 21.3398387,44.3481981 21.9539208,44.9531365 C22.842561,45.8280062 24.0532787,45.6007116 24.1384008,45.7983425 C24.2235205,45.9959736 23.0193603,46.6498571 23.0382397,48.5176906 C23.0545605,50.1389538 23.1524805,51.8959294 23.5856005,52.7455826 C24.0185595,53.5933856 24.5179198,54.2103749 24.684641,54.1719983 C24.8510398,54.1334408 24.8838402,52.8225223 25.9500805,52.8225223 C27.11552,52.8225223 27.7148803,53.7087019 27.7148803,55.5609654 C27.7148803,57.41212 26.4494408,57.9139798 24.8179198,57.9139798 C23.1863989,57.9139798 21.7873608,56.7567543 21.2547192,54.6736769 C20.7217602,52.5907807 20.2223998,49.7744701 19.5563195,47.7301427 C18.8902405,45.6865509 17.7247997,43.4104764 17.3916797,43.0241196 C17.0585595,42.6386852 16.7923205,42.4455069 16.6256006,42.6770618 L16.6256005,42.6770618 Z M24.0332787,43.9251417 C22.3657592,43.8072285 22.2148803,42.4104764 22.2148803,42.4104764 C22.2148803,42.4104764 25.4343994,41.3107223 29.9104003,39.5226064 C31.0094408,40.2445299 31.592639,40.6045612 32.7784008,41.1883678 C31.1323192,41.8309358 30.109121,42.2627185 29.61312,42.448853 C25.7606395,43.8945504 25.0467211,43.9967011 24.0332787,43.9251419 L24.0332787,43.9251417 Z M37.1766405,43.4644365 C31.1377587,46.3261678 23.8854394,48.6975357 23.8854394,48.6975357 C23.8854394,48.6975357 23.6312011,46.7449715 24.2847997,45.8435897 C24.98416,44.8786202 26.1499194,44.6479877 29.7462402,43.1813453 C31.0862402,42.6359152 32.1902392,42.2083985 33.6979198,41.6095762 C35.3540795,42.582523 36.146079,42.9679575 37.1766405,43.4644367 L37.1766405,43.4644365 Z M49.5515184,51.8223356 C50.6105614,51.8223356 50.6422411,53.1332539 50.808159,53.1718172 C50.9726414,53.2101938 51.4689598,52.5932045 51.8988818,51.7454015 C52.328159,50.8957427 52.5604784,48.9641292 52.4948779,47.344535 C52.4284814,45.724941 51.5798389,45.2798116 51.643999,44.9837356 C51.7073584,44.6872919 52.712959,44.5152453 53.4862403,43.7677431 C54.3099219,42.9714766 54.5535987,41.3544794 55.7659181,39.7094818 C56.9886378,38.0513273 58.2446387,37.2411569 59.7977589,37.2411569 C61.3510402,37.2411569 62.5081592,38.2445058 62.5081592,40.1727783 C62.5081592,42.1018005 61.5825586,43.1813451 60.2932813,43.1813451 C59.0047998,43.1813451 58.9716797,41.9088032 58.8057618,41.6770616 C58.6412794,41.4455067 58.3764795,41.638685 58.0460792,42.0241195 C57.7156789,42.410476 56.5591994,44.6863639 55.8977589,46.7301425 C55.2368019,48.7744699 54.7411182,51.5907805 54.2116798,53.6736768 C53.6836818,55.7565672 52.2950392,56.9139796 50.6753614,56.9139796 C49.0564797,56.9139796 47.7996779,56.4121198 47.7996779,54.5609652 C47.8000002,52.7087017 48.3952003,51.8223354 49.5515187,51.8223354 L49.5515184,51.8223356 Z M58.2446386,44.3769416 C59.0729589,44.3769416 59.09104,44.9301567 58.9385595,45.6111069 C58.7403222,46.4991423 58.0462402,47.501747 58.0462402,47.501747 C58.0462402,47.501747 59.0705614,46.729956 59.4019189,45.6889745 C59.6047997,45.048251 59.598081,44.338565 61.0206395,44.338565 C62.4975976,44.338565 62.1113622,45.3419167 61.8473582,46.1897197 C61.5419187,47.1695238 61.120161,47.6949253 61.120161,47.6949253 C61.120161,47.6949253 61.9635203,47.4133163 62.2766405,46.2282829 C62.6108787,44.961676 62.779199,44.4931858 63.9294384,44.4931858 C65.1431982,44.4931858 65.1831982,45.1487384 64.8217578,46.884571 C64.5238378,48.3119146 64.1316797,49.2856026 63.0694384,50.0479397 C62.469121,50.4778667 57.9942382,50.3241738 56.49312,50.1632504 C55.4769579,50.0540558 56.0073582,47.6144665 56.5262402,46.5376998 C57.1206395,45.3035403 57.5505614,44.3769416 58.2446386,44.3769416 L58.2446386,44.3769416 Z M65.7142382,50.8188028 C66.7001611,50.9133552 67.2998389,50.5740824 67.2673584,50.2401901 C67.2356787,49.9072256 65.25104,49.9335511 65.25104,47.347132 C65.25104,45.8044721 66.1094384,44.531749 67.4988818,44.531749 C69.1516797,44.531749 70.4401611,45.6496702 70.4401611,48.4274176 C70.4401611,50.8581071 68.8206397,52.6045085 67.1353613,52.5548277 C64.6196778,52.4814127 63.8735986,50.1512048 64.1934424,49.8549422 C64.5132813,49.5584985 64.827041,50.7350056 65.7142382,50.8188026 L65.7142382,50.8188028 Z" id="svg_7"></path>
                </g>
            </g>
            <path d="M228,16.1111111 L239.25,19.3333333 L228,9.66666667 L239.25,12.8888889 L231.975,0 L243,9.66666667 L254.025,0 L246.75,12.8888889 L258,9.66666667 L246.75,19.3333333 L258,16.1111111 L243,29 L228,16.1111111 L228,16.1111111 Z M232.65,41.4377778 L237,45.1111111 L241.35,41.3733333 L237,37.7 L232.65,41.4377778 L232.65,41.4377778 Z M232.05,30.6111111 L237,34.8 L241.35,31.0622222 L236.25,26.7444444 C234.675,27.7111111 233.25,29 232.05,30.6111111 L232.05,30.6111111 Z M230.925,39.9555556 L235.275,36.2177778 L230.85,32.4155556 C229.875,34.0911111 229.2,36.0244444 228.825,38.0866667 L230.925,39.9555556 L230.925,39.9555556 Z M230.925,42.92 L228.825,44.7244444 C229.2,46.7866667 229.875,48.72 230.85,50.3955556 L235.275,46.5933333 L230.925,42.92 L230.925,42.92 Z M253.35,41.4377778 L249,37.7 L244.65,41.4377778 L249,45.1111111 L253.35,41.4377778 L253.35,41.4377778 Z M238.65,36.2177778 L243,39.9555556 L247.35,36.2177778 L243,32.5444444 L238.65,36.2177778 L238.65,36.2177778 Z M255.075,42.92 L250.725,46.6577778 L255.15,50.46 C256.125,48.7844444 256.8,46.8511111 257.175,44.7888889 L255.075,42.92 L255.075,42.92 Z M249,34.8 L253.875,30.6111111 C252.75,29 251.325,27.7111111 249.75,26.7444444 L244.725,31.0622222 L249,34.8 L249,34.8 Z M237,48.0755556 L232.125,52.2644444 C233.325,53.8111111 234.75,55.1 236.325,56.0666667 L241.35,51.7488889 L237,48.0755556 L237,48.0755556 Z M243,53.2311111 L238.425,57.1622222 C239.85,57.6777778 241.35,58 243,58 C244.65,58 246.15,57.6777778 247.575,57.1622222 L243,53.2311111 L243,53.2311111 Z M255.075,39.9555556 L257.175,38.1511111 C256.8,36.0888889 256.125,34.1555556 255.15,32.48 L250.725,36.2822222 L255.075,39.9555556 L255.075,39.9555556 Z M247.35,46.5933333 L243,42.92 L238.65,46.6577778 L243,50.3955556 L247.35,46.5933333 L247.35,46.5933333 Z M253.95,52.2644444 L249,48.0755556 L244.65,51.8133333 L249.75,56.0666667 C251.325,55.1 252.75,53.8111111 253.95,52.2644444 L253.95,52.2644444 Z" id="Shape"></path>
        </g>
    </g>
</svg>